<?xml version="1.0" encoding="UTF-8" standalone="no"?>
<svg
   xmlns:dc="http://purl.org/dc/elements/1.1/"
   xmlns:cc="http://creativecommons.org/ns#"
   xmlns:rdf="http://www.w3.org/1999/02/22-rdf-syntax-ns#"
   xmlns:svg="http://www.w3.org/2000/svg"
   xmlns="http://www.w3.org/2000/svg"
   xmlns:sodipodi="http://sodipodi.sourceforge.net/DTD/sodipodi-0.dtd"
   xmlns:inkscape="http://www.inkscape.org/namespaces/inkscape"
   version="1.1"
   x="0px"
   y="0px"
   viewBox="0 0 64 64"
   enable-background="new 0 0 512 512"
   xml:space="preserve"
   id="svg2"
   inkscape:version="0.92.4 (5da689c313, 2019-01-14)"
   sodipodi:docname="printer_icon.svg"
   width="64"
   height="64"><metadata
     id="metadata24"><rdf:RDF><cc:Work
         rdf:about=""><dc:format>image/svg+xml</dc:format><dc:type
           rdf:resource="http://purl.org/dc/dcmitype/StillImage" /><dc:title></dc:title></cc:Work></rdf:RDF></metadata><defs
     id="defs22" /><sodipodi:namedview
     pagecolor="#ffffff"
     bordercolor="#666666"
     borderopacity="1"
     objecttolerance="10"
     gridtolerance="10"
     guidetolerance="10"
     inkscape:pageopacity="0"
     inkscape:pageshadow="2"
     inkscape:window-width="1920"
     inkscape:window-height="1017"
     id="namedview20"
     showgrid="false"
     inkscape:zoom="12.78125"
     inkscape:cx="32"
     inkscape:cy="32"
     inkscape:window-x="-8"
     inkscape:window-y="-8"
     inkscape:window-maximized="1"
     inkscape:current-layer="svg2" /><g
     id="g4173"
     transform="matrix(0.1171875,0,0,0.1171875,2,1.9672156)"
     style="fill:#00c0b5;fill-opacity:1;stroke-width:8.53333282"><g
       id="g4165"
       style="fill:#00c0b5;fill-opacity:1;stroke-width:8.53333282"><path
         d="M 480,0.55952 H 32.000003 C 14.344,0.55952 0,14.903519 0,32.559519 V 192.55952 c 0,17.688 14.344,32 32.000003,32 h 64 c 123.782617,0 140.706477,0 319.999997,0 h 64 c 17.688,0 32,-14.313 32,-32 V 32.559519 C 512,14.903519 497.688,0.55952 480,0.55952 Z m -32,96 c -17.688,0 -32,-14.313 -32,-32.000001 0,-17.656 14.313,-32 32,-32 17.687,0 32,14.344 32,32 0,17.688001 -14.312,32.000001 -32,32.000001 z"
         id="path4157"
         inkscape:connector-curvature="0"
         sodipodi:nodetypes="sssssccsssssssss"
         style="fill:#00c0b5;fill-opacity:1;stroke-width:8.53333282" /><g
         id="g4159"
         style="fill:#00c0b5;fill-opacity:1;stroke-width:8.53333282"><path
           sodipodi:nodetypes="ssssscsssscsssscccccsssss"
           d="M 480,128 H 32 C 14.344,128 0,142.344 0,160 v 160 c 0,17.688 14.344,32 32,32 h 64 v 128 c 0,17.688 14.344,32 32,32 h 256 c 17.688,0 32,-14.313 32,-32 V 352 h 64 c 17.688,0 32,-14.313 32,-32 V 160 c 0,-17.656 -14.312,-32 -32,-32 z M 384,480 H 128 V 178 h 256 z m 64,-256 c -17.688,0 -32,-14.313 -32,-32 0,-17.656 14.313,-32 32,-32 17.687,0 32,14.344 32,32 0,17.688 -14.312,32 -32,32 z"
           id="path8"
           inkscape:connector-curvature="0"
           style="fill:#00c0b5;fill-opacity:1;stroke-width:8.53333282" /><rect
           x="160"
           y="288"
           width="128"
           height="32"
           id="rect10"
           style="fill:#00c0b5;fill-opacity:1;stroke-width:8.53333282" /><rect
           x="160"
           y="352"
           width="192"
           height="32"
           id="rect12"
           style="fill:#00c0b5;fill-opacity:1;stroke-width:8.53333282" /><rect
           x="160"
           y="416"
           width="192"
           height="32"
           id="rect14"
           style="fill:#00c0b5;fill-opacity:1;stroke-width:8.53333282" /></g></g></g></svg>