<?xml version="1.0" encoding="UTF-8" standalone="no"?>
<svg
   xmlns:dc="http://purl.org/dc/elements/1.1/"
   xmlns:cc="http://creativecommons.org/ns#"
   xmlns:rdf="http://www.w3.org/1999/02/22-rdf-syntax-ns#"
   xmlns:svg="http://www.w3.org/2000/svg"
   xmlns="http://www.w3.org/2000/svg"
   xmlns:sodipodi="http://sodipodi.sourceforge.net/DTD/sodipodi-0.dtd"
   xmlns:inkscape="http://www.inkscape.org/namespaces/inkscape"
   version="1.0"
   x="0px"
   y="0px"
   viewBox="0 0 64 63.999998"
   enable-background="new 0 0 100 75.821"
   xml:space="preserve"
   id="svg2"
   inkscape:version="0.92.4 (5da689c313, 2019-01-14)"
   sodipodi:docname="touch_icon_64.svg"
   width="64"
   height="64"><metadata
     id="metadata14"><rdf:RDF><cc:Work
         rdf:about=""><dc:format>image/svg+xml</dc:format><dc:type
           rdf:resource="http://purl.org/dc/dcmitype/StillImage" /><dc:title></dc:title></cc:Work></rdf:RDF></metadata><defs
     id="defs12" /><sodipodi:namedview
     pagecolor="#ffffff"
     bordercolor="#666666"
     borderopacity="1"
     objecttolerance="10"
     gridtolerance="10"
     guidetolerance="10"
     inkscape:pageopacity="0"
     inkscape:pageshadow="2"
     inkscape:window-width="1920"
     inkscape:window-height="1017"
     id="namedview10"
     showgrid="false"
     inkscape:zoom="12.78125"
     inkscape:cx="32"
     inkscape:cy="32"
     inkscape:window-x="-8"
     inkscape:window-y="-8"
     inkscape:window-maximized="1"
     inkscape:current-layer="svg2" /><path
     d="m 29.18115,41.200827 c -0.325611,-0.325611 -0.508399,-0.767005 -0.508399,-1.227796 0,-0.958609 0.777584,-1.736194 1.736194,-1.736194 0.460791,0 0.902186,0.183376 1.227795,0.508986 v 0 l 5.66996,5.669371 H 38.002 V 23.344011 c 0,-0.958608 0.777585,-1.737369 1.736193,-1.737369 0.95861,0 1.736782,0.778761 1.736782,1.737369 v 0 15.117344 H 42.1691 v -7.288016 c 0,-0.958609 0.778172,-1.736193 1.736782,-1.736193 0.958608,0 1.736193,0.777584 1.736193,1.736193 v 0 8.404728 h 0.6953 v -8.276599 c 0.300337,-0.225694 0.665914,-0.347945 1.040894,-0.347945 0.958608,0 1.737369,0.777584 1.737369,1.736194 v 0 8.004475 h 0.694124 v -6.140153 c 0.300337,-0.225694 0.666501,-0.346769 1.042069,-0.346769 0.958021,0 1.736782,0.777584 1.736782,1.735606 v 0 l -0.01117,11.061915 c -0.0088,4.02134 -3.271379,7.27685 -7.293893,7.27685 -1.934264,0 -3.788593,-0.768768 -5.156272,-2.135859 v 0 z M 58.314995,9.7183592 H 5.6855251 c -1.6985775,0 -3.0774238,1.3788458 -3.0774238,3.0774238 v 0 33.852836 c 0,1.699753 1.3788463,3.078012 3.0774238,3.078012 v 0 H 35.251362 L 30.634638,45.110494 H 7.2242374 v -30.776 H 56.776283 v 30.775413 h -2.461469 l -0.0017,1.879603 c 0,0.928047 -0.14341,1.851979 -0.425527,2.736533 v 0 h 4.426883 c 1.699165,0 3.077428,-1.378846 3.077428,-3.078012 v 0 -33.852248 C 61.392823,11.097205 60.014177,9.7183592 58.315012,9.7183592 Z M 43.211756,23.344011 v 3.882045 c 1.10437,-0.987996 1.736194,-2.400344 1.736194,-3.882045 0,-2.875828 -2.333928,-5.209757 -5.209169,-5.209757 -2.87524,0 -5.209756,2.333929 -5.209756,5.209757 0,1.481701 0.632412,2.894049 1.736781,3.882045 v 0 -3.882045 c 0,-1.917218 1.555757,-3.473563 3.472975,-3.473563 1.917219,0 3.472975,1.556345 3.472975,3.473563 z"
     id="path4"
     inkscape:connector-curvature="0"
     style="fill:#00c0b5;fill-opacity:1;stroke-width:0.99999994" /></svg>