<?xml version="1.0" encoding="UTF-8" standalone="no"?>
<!-- Created with Inkscape (http://www.inkscape.org/) -->

<svg
   xmlns:dc="http://purl.org/dc/elements/1.1/"
   xmlns:cc="http://creativecommons.org/ns#"
   xmlns:rdf="http://www.w3.org/1999/02/22-rdf-syntax-ns#"
   xmlns:svg="http://www.w3.org/2000/svg"
   xmlns="http://www.w3.org/2000/svg"
   xmlns:xlink="http://www.w3.org/1999/xlink"
   xmlns:sodipodi="http://sodipodi.sourceforge.net/DTD/sodipodi-0.dtd"
   xmlns:inkscape="http://www.inkscape.org/namespaces/inkscape"
   width="210mm"
   height="297mm"
   id="svg2"
   version="1.1"
   inkscape:version="0.48.4 r9939"
   sodipodi:docname="Nouveau document 1">
  <defs
     id="defs4">
    <linearGradient
       inkscape:collect="always"
       id="linearGradient4837">
      <stop
         style="stop-color:#00c0b5;stop-opacity:1;"
         offset="0"
         id="stop4839" />
      <stop
         style="stop-color:#00c0b5;stop-opacity:0;"
         offset="1"
         id="stop4841" />
    </linearGradient>
    <linearGradient
       inkscape:collect="always"
       id="linearGradient3763">
      <stop
         style="stop-color:#00c0b5;stop-opacity:1;"
         offset="0"
         id="stop3765" />
      <stop
         style="stop-color:#00c0b5;stop-opacity:0;"
         offset="1"
         id="stop3767" />
    </linearGradient>
    <linearGradient
       inkscape:collect="always"
       xlink:href="#linearGradient3763"
       id="linearGradient3769"
       x1="278.63947"
       y1="545.20441"
       x2="278.63947"
       y2="418.52475"
       gradientUnits="userSpaceOnUse"
       gradientTransform="matrix(1,0,0,0.5514638,0,375.46238)" />
    <clipPath
       id="clipPath4122"
       clipPathUnits="userSpaceOnUse">
      <path
         id="path4124"
         d="m 0,841.89 595.276,0 L 595.276,0 0,0 0,841.89 z" />
    </clipPath>
    <clipPath
       id="clipPath4022"
       clipPathUnits="userSpaceOnUse">
      <path
         id="path4024"
         d="m 56.693,731.321 25.511,0 0,25.511 -25.511,0 0,-25.511 z" />
    </clipPath>
    <clipPath
       id="clipPath3854"
       clipPathUnits="userSpaceOnUse">
      <path
         id="path3856"
         d="m 0,841.89 595.276,0 L 595.276,0 0,0 0,841.89 z" />
    </clipPath>
    <clipPath
       id="clipPath3834"
       clipPathUnits="userSpaceOnUse">
      <path
         id="path3836"
         d="m 0,841.89 595.276,0 L 595.276,0 0,0 0,841.89 z" />
    </clipPath>
    <linearGradient
       y2="655.54425"
       x2="245.86482"
       y1="655.54425"
       x1="622.45654"
       gradientUnits="userSpaceOnUse"
       id="linearGradient4010"
       xlink:href="#linearGradient3887"
       inkscape:collect="always" />
    <linearGradient
       y2="655.54425"
       x2="245.86482"
       y1="655.54425"
       x1="622.45654"
       gradientUnits="userSpaceOnUse"
       id="linearGradient3916"
       xlink:href="#linearGradient3887"
       inkscape:collect="always" />
    <linearGradient
       y2="625.93359"
       x2="622.44403"
       y1="625.93359"
       x1="244.69885"
       gradientUnits="userSpaceOnUse"
       id="linearGradient3882"
       xlink:href="#linearGradient3861"
       inkscape:collect="always" />
    <linearGradient
       gradientTransform="translate(-109.79177,313.23583)"
       y2="161.42551"
       x2="-130.0889"
       y1="161.42551"
       x1="789.41895"
       gradientUnits="userSpaceOnUse"
       id="linearGradient3826"
       xlink:href="#linearGradient3807"
       inkscape:collect="always" />
    <linearGradient
       gradientTransform="translate(9.1631622,-167.14286)"
       gradientUnits="userSpaceOnUse"
       y2="1011.2719"
       x2="305.6048"
       y1="1011.2719"
       x1="841.922"
       id="linearGradient3803"
       xlink:href="#linearGradient3797"
       inkscape:collect="always" />
    <linearGradient
       gradientTransform="translate(-5.789792,-158.6342)"
       gradientUnits="userSpaceOnUse"
       y2="904.73419"
       x2="-531.21405"
       y1="904.73419"
       x1="197.30348"
       id="linearGradient3772"
       xlink:href="#linearGradient3766"
       inkscape:collect="always" />
    <linearGradient
       id="linearGradient3766"
       inkscape:collect="always">
      <stop
         id="stop3768"
         offset="0"
         style="stop-color:#e9b96e;stop-opacity:1;" />
      <stop
         id="stop3770"
         offset="1"
         style="stop-color:#e9b96e;stop-opacity:0;" />
    </linearGradient>
    <linearGradient
       id="linearGradient3797">
      <stop
         id="stop3799"
         offset="0"
         style="stop-color:#babdb6;stop-opacity:1;" />
      <stop
         id="stop3801"
         offset="1"
         style="stop-color:#babeb5;stop-opacity:0.61176473;" />
    </linearGradient>
    <linearGradient
       id="linearGradient3807">
      <stop
         id="stop3809"
         offset="0"
         style="stop-color:#8be234;stop-opacity:1;" />
      <stop
         id="stop3811"
         offset="1"
         style="stop-color:#7fd52b;stop-opacity:0.67058825;" />
    </linearGradient>
    <linearGradient
       id="linearGradient3861">
      <stop
         id="stop3863"
         offset="0"
         style="stop-color:#729fcf;stop-opacity:0.87450981;" />
      <stop
         id="stop3865"
         offset="1"
         style="stop-color:#739fcf;stop-opacity:0.627451;" />
    </linearGradient>
    <linearGradient
       id="linearGradient3887">
      <stop
         id="stop3889"
         offset="0"
         style="stop-color:#fce94f;stop-opacity:1;" />
      <stop
         id="stop3891"
         offset="1"
         style="stop-color:#fce94f;stop-opacity:0.58039218;" />
    </linearGradient>
    <linearGradient
       inkscape:collect="always"
       xlink:href="#linearGradient3807"
       id="linearGradient4759"
       gradientUnits="userSpaceOnUse"
       gradientTransform="matrix(0.8660254,-0.5,0.5,0.8660254,-120.51323,63.5707)"
       x1="789.41895"
       y1="161.42551"
       x2="-130.0889"
       y2="161.42551" />
    <linearGradient
       inkscape:collect="always"
       xlink:href="#linearGradient3797"
       id="linearGradient4762"
       gradientUnits="userSpaceOnUse"
       gradientTransform="translate(-172.88552,-429.73823)"
       x1="841.922"
       y1="1011.2719"
       x2="305.6048"
       y2="1011.2719" />
    <linearGradient
       inkscape:collect="always"
       xlink:href="#linearGradient3766"
       id="linearGradient4765"
       gradientUnits="userSpaceOnUse"
       gradientTransform="translate(-187.83847,-421.22957)"
       x1="197.30348"
       y1="904.73419"
       x2="-531.21405"
       y2="904.73419" />
    <linearGradient
       inkscape:collect="always"
       xlink:href="#linearGradient3797"
       id="linearGradient4799"
       gradientUnits="userSpaceOnUse"
       gradientTransform="translate(-172.88552,-429.73823)"
       x1="841.922"
       y1="1011.2719"
       x2="305.6048"
       y2="1011.2719" />
    <linearGradient
       inkscape:collect="always"
       xlink:href="#linearGradient3861"
       id="linearGradient4801"
       gradientUnits="userSpaceOnUse"
       x1="244.69885"
       y1="625.93359"
       x2="622.44403"
       y2="625.93359" />
    <linearGradient
       inkscape:collect="always"
       xlink:href="#linearGradient3887"
       id="linearGradient4803"
       gradientUnits="userSpaceOnUse"
       x1="622.45654"
       y1="655.54425"
       x2="245.86482"
       y2="655.54425" />
    <linearGradient
       inkscape:collect="always"
       xlink:href="#linearGradient4837"
       id="linearGradient4843"
       x1="168.20308"
       y1="493.38425"
       x2="96.058449"
       y2="343.48529"
       gradientUnits="userSpaceOnUse" />
    <linearGradient
       inkscape:collect="always"
       xlink:href="#linearGradient3763"
       id="linearGradient4845"
       gradientUnits="userSpaceOnUse"
       gradientTransform="matrix(1,0,0,0.5514638,0,375.46238)"
       x1="278.63947"
       y1="545.20441"
       x2="278.63947"
       y2="418.52475" />
    <linearGradient
       inkscape:collect="always"
       xlink:href="#linearGradient3763"
       id="linearGradient4899"
       gradientUnits="userSpaceOnUse"
       gradientTransform="matrix(1,0,0,0.99770035,0,121.93703)"
       x1="278.63947"
       y1="545.20441"
       x2="278.63947"
       y2="418.52475" />
    <linearGradient
       inkscape:collect="always"
       xlink:href="#linearGradient4837"
       id="linearGradient4933"
       gradientUnits="userSpaceOnUse"
       x1="168.20308"
       y1="493.38425"
       x2="96.058449"
       y2="343.48529" />
    <linearGradient
       inkscape:collect="always"
       xlink:href="#linearGradient3861"
       id="linearGradient4935"
       gradientUnits="userSpaceOnUse"
       x1="244.69885"
       y1="625.93359"
       x2="622.44403"
       y2="625.93359" />
    <linearGradient
       inkscape:collect="always"
       xlink:href="#linearGradient3887"
       id="linearGradient4937"
       gradientUnits="userSpaceOnUse"
       x1="622.45654"
       y1="655.54425"
       x2="245.86482"
       y2="655.54425" />
  </defs>
  <sodipodi:namedview
     id="base"
     pagecolor="#ffffff"
     bordercolor="#666666"
     borderopacity="1.0"
     inkscape:pageopacity="0.0"
     inkscape:pageshadow="2"
     inkscape:zoom="1.1771484"
     inkscape:cx="228.88419"
     inkscape:cy="616.0155"
     inkscape:document-units="px"
     inkscape:current-layer="layer1"
     showgrid="false"
     inkscape:window-width="1920"
     inkscape:window-height="1058"
     inkscape:window-x="-8"
     inkscape:window-y="-8"
     inkscape:window-maximized="1" />
  <metadata
     id="metadata7">
    <rdf:RDF>
      <cc:Work
         rdf:about="">
        <dc:format>image/svg+xml</dc:format>
        <dc:type
           rdf:resource="http://purl.org/dc/dcmitype/StillImage" />
        <dc:title></dc:title>
      </cc:Work>
    </rdf:RDF>
  </metadata>
  <g
     inkscape:label="Calque 1"
     inkscape:groupmode="layer"
     id="layer1">
    <g
       id="g4939"
       inkscape:export-filename="Y:\OPTO LOGIC TECHNOLOGY\VENTE\Publicités\Newsletter\20131120T0800 Newsletter Quality\img\fond.png"
       inkscape:export-xdpi="150"
       inkscape:export-ydpi="150">
      <rect
         y="531.12604"
         x="45.873566"
         height="157.6456"
         width="650"
         id="rect2985"
         style="fill:url(#linearGradient4899);fill-opacity:1;stroke:none" />
      <g
         transform="matrix(2.8657891,0,0,2.8657891,526.33519,-317.67811)"
         id="g4482">
        <g
           id="g4018"
           transform="matrix(1.25,0,0,-1.25,-229.57542,1255.174)">
          <g
             id="g4020"
             clip-path="url(#clipPath4022)">
            <g
               id="g4026"
               transform="translate(68.687,751.4438)">
              <path
                 inkscape:connector-curvature="0"
                 d="m 0,0 c -1.204,0.015 -2.381,-0.418 -3.394,-1.042 -1.369,-0.922 -2.451,-2.304 -2.872,-3.912 -0.268,-0.86 -0.238,-1.772 -0.188,-2.661 0.215,-1.585 0.977,-3.098 2.183,-4.16 1.442,-1.361 3.52,-1.966 5.474,-1.675 1.171,0.169 2.3,0.625 3.21,1.385 1.285,1.039 2.205,2.531 2.464,4.17 0.178,1.093 0.126,2.236 -0.246,3.284 C 6.53,-4.36 6.479,-4.06 6.309,-3.85 4.606,-5.502 2.938,-7.205 1.253,-8.881 L 0.228,-9.908 c -0.695,0.694 -1.388,1.388 -2.082,2.083 0.015,1.035 -0.025,2.075 0.052,3.108 0.68,-0.669 1.322,-1.386 2.037,-2.011 1.423,1.359 2.797,2.776 4.193,4.165 C 4.613,-2.362 4.838,-2.179 5,-1.968 3.905,-0.867 2.425,-0.14 0.873,-0.007 0.582,0.005 0.291,0.001 0,0"
                 style="fill:#f25424;fill-opacity:1;fill-rule:nonzero;stroke:none"
                 id="path4028" />
            </g>
            <g
               id="g4030"
               transform="translate(68.5386,756.8472)">
              <path
                 inkscape:connector-curvature="0"
                 d="m 0,0 c -1.645,-0.003 -3.28,-0.413 -4.78,-1.064 -0.44,-0.225 -0.917,-0.423 -1.31,-0.709 -1.358,-0.792 -2.522,-1.915 -3.455,-3.178 -0.592,-0.864 -1.107,-1.788 -1.478,-2.769 -0.553,-1.361 -0.791,-2.841 -0.81,-4.305 0.092,-0.12 0.311,-0.037 0.442,-0.069 0.664,0.006 1.342,-0.008 1.997,0.025 0.045,1.557 0.348,3.137 1.13,4.498 0.418,0.84 0.992,1.589 1.65,2.256 1.108,1.11 2.48,1.942 3.979,2.411 1.552,0.475 3.232,0.591 4.833,0.288 1.044,-0.204 2.05,-0.574 2.978,-1.099 1.281,-0.72 2.406,-1.745 3.235,-2.965 0.378,-0.587 0.734,-1.177 0.985,-1.829 0.537,-1.258 0.758,-2.635 0.737,-4 0.024,-1.965 0.04,-3.928 0.047,-5.892 0.811,-0.033 1.648,-0.005 2.469,-0.015 0.011,0.949 -0.035,1.923 -0.031,2.882 -0.024,1.494 0.02,2.991 -0.053,4.483 -0.238,2.184 -1.024,4.315 -2.324,6.09 -1.105,1.469 -2.514,2.72 -4.138,3.584 C 4.64,-0.625 3.021,-0.13 1.372,-0.011 0.915,0.005 0.457,0.005 0,0 m 0.364,-0.562 c 0.189,0.015 0.486,0.01 0.491,-0.243 0.024,-0.16 -0.027,-0.377 -0.192,-0.422 0.064,-0.132 0.241,-0.218 0.195,-0.398 0.076,-0.242 -0.074,-0.456 -0.272,-0.299 -0.03,0.17 0.084,0.507 -0.153,0.561 -0.294,0.086 -0.138,-0.296 -0.176,-0.462 0.036,-0.272 -0.431,-0.145 -0.273,0.127 -0.001,0.38 0.004,0.76 0.047,1.136 l 0.333,0 z M 1.217,-0.564 C 1.505,-0.6 1.821,-0.574 2.093,-0.674 2.152,-0.807 2.042,-0.867 1.925,-0.834 1.804,-0.817 1.662,-0.844 1.711,-1.005 1.67,-1.343 1.66,-1.715 1.599,-2.033 1.505,-2.024 1.296,-2.052 1.345,-1.896 1.37,-1.542 1.471,-1.177 1.422,-0.825 1.37,-0.69 1.081,-0.842 1.134,-0.647 c 0.004,0.049 0.026,0.09 0.083,0.083 m -1.715,-0.023 c 0.136,0.047 0.153,-0.178 0.016,-0.158 -0.132,-0.036 -0.439,0.001 -0.387,-0.22 -0.019,-0.17 0.14,-0.227 0.28,-0.198 0.101,0.035 0.28,-0.016 0.181,-0.137 -0.113,-0.112 -0.326,0.006 -0.42,-0.104 0.021,-0.144 0.029,-0.304 0.048,-0.44 0.16,-0.011 0.36,0.081 0.507,0.023 0.059,-0.219 -0.265,-0.154 -0.382,-0.192 -0.208,-0.027 -0.449,-0.091 -0.404,0.199 -0.024,0.382 -0.114,0.775 -0.067,1.155 0.169,0.112 0.434,0.043 0.628,0.072 M 2.517,-0.734 C 2.752,-0.706 2.604,-0.943 2.601,-1.071 2.527,-1.433 2.473,-1.815 2.363,-2.16 c -0.119,0.002 -0.315,0.054 -0.212,0.213 0.089,0.412 0.178,0.82 0.242,1.236 l 0.124,-0.023 z m -4.37,-0.02 c 0.179,0.021 0.343,-0.184 0.319,-0.342 -0.116,-0.092 -0.261,-0.017 -0.318,0.101 -0.105,0.096 -0.282,0.03 -0.251,-0.124 0.026,-0.284 0.028,-0.617 0.213,-0.847 0.137,-0.072 0.297,0.037 0.264,0.197 -0.005,0.154 0.302,0.2 0.266,0.007 0.053,-0.365 -0.415,-0.519 -0.692,-0.397 -0.302,0.258 -0.305,0.716 -0.323,1.087 0.05,0.249 0.289,0.343 0.522,0.318 m 4.906,-0.115 c 0.224,-0.043 0.493,-0.064 0.68,-0.183 0.007,-0.097 -0.037,-0.204 -0.151,-0.126 -0.11,0 -0.331,0.184 -0.36,-0.007 C 3.18,-1.298 3.111,-1.526 3.302,-1.537 3.397,-1.55 3.647,-1.564 3.543,-1.72 3.445,-1.874 3.245,-1.621 3.104,-1.691 2.986,-1.849 3.06,-2.131 2.889,-2.25 2.793,-2.27 2.638,-2.238 2.71,-2.105 c 0.105,0.41 0.183,0.849 0.334,1.235 l 0.008,0.001 10e-4,0 z M 4.05,-1.136 C 4.146,-1.149 4.307,-1.154 4.21,-1.293 4.071,-1.698 3.979,-2.155 3.767,-2.521 c -0.104,0.015 -0.283,0.045 -0.179,0.184 0.145,0.395 0.238,0.832 0.438,1.195 0.008,0.004 0.016,0.005 0.024,0.006 m -7.502,-0.006 c 0.109,-0.051 0.113,-0.249 0.181,-0.35 0.1,-0.318 0.278,-0.623 0.366,-0.935 -0.074,-0.058 -0.232,-0.169 -0.26,-0.008 -0.151,0.291 -0.231,0.611 -0.389,0.898 -0.044,-0.19 0.034,-0.463 0.058,-0.685 -0.007,-0.139 0.123,-0.357 0.009,-0.465 -0.09,-0.061 -0.207,-0.098 -0.256,0.035 -0.215,0.241 -0.381,0.541 -0.582,0.786 -0.107,-0.029 0.047,-0.197 0.048,-0.256 0.078,-0.253 0.256,-0.489 0.278,-0.752 -0.066,-0.075 -0.24,-0.143 -0.258,0.008 -0.163,0.398 -0.321,0.805 -0.485,1.195 0.118,0.089 0.312,0.175 0.445,0.184 0.193,-0.245 0.329,-0.569 0.557,-0.77 0.103,0.077 -0.029,0.265 -0.018,0.376 -0.017,0.193 -0.078,0.406 -0.064,0.59 0.1,0.078 0.244,0.127 0.37,0.149 m 8.29,-0.286 C 5.098,-1.434 5.404,-1.634 5.302,-1.929 5.31,-2.03 5.239,-2.098 5.151,-2.014 4.934,-1.977 5.174,-1.638 4.936,-1.637 4.691,-1.704 4.639,-2.025 4.53,-2.225 4.471,-2.354 4.396,-2.669 4.626,-2.659 c 0.105,0.012 0.182,0.12 0.221,0.189 0.09,-0.018 0.316,-0.107 0.167,-0.218 -0.113,-0.195 -0.359,-0.278 -0.549,-0.134 -0.277,0.098 -0.32,0.441 -0.199,0.68 0.124,0.261 0.223,0.7 0.572,0.714 m -9.922,-0.503 c 0.105,-0.164 -0.212,-0.182 -0.295,-0.278 -0.175,-0.063 0.04,-0.252 0.079,-0.348 0.1,-0.077 0.229,0.109 0.338,0.12 0.128,0.103 0.201,-0.146 0.056,-0.171 -0.187,-0.085 -0.368,-0.178 -0.166,-0.379 0.045,-0.075 0.105,-0.284 0.204,-0.143 0.114,0.042 0.24,0.194 0.363,0.159 0.144,-0.139 -0.086,-0.208 -0.182,-0.274 -0.137,-0.071 -0.276,-0.179 -0.423,-0.215 -0.226,0.338 -0.397,0.722 -0.611,1.074 -0.137,0.206 0.166,0.29 0.3,0.366 0.102,0.01 0.316,0.284 0.337,0.089 M 6.115,-2.028 C 6.26,-2.057 6.494,-2.176 6.372,-2.354 6.295,-2.682 6.216,-3.011 6.117,-3.328 6.083,-3.406 6.098,-3.686 5.954,-3.58 c -0.142,0.039 -0.173,0.175 -0.103,0.296 0.074,0.21 -0.232,0.258 -0.356,0.331 -0.103,-0.198 -0.387,-0.26 -0.438,-0.064 0.35,0.327 0.666,0.721 1.058,0.989 M -6.067,-2.415 c 0.041,-0.07 0.137,-0.194 -0.002,-0.228 -0.117,-0.037 -0.204,-0.165 -0.099,-0.268 0.192,-0.299 0.411,-0.577 0.607,-0.878 -0.077,-0.09 -0.221,-0.191 -0.294,-0.034 -0.226,0.271 -0.4,0.619 -0.63,0.873 -0.1,-0.017 -0.209,-0.227 -0.313,-0.146 -0.147,0.159 0.136,0.257 0.229,0.349 0.166,0.108 0.329,0.244 0.502,0.332 M 6.904,-2.516 C 7.168,-2.673 7.456,-2.845 7.673,-3.05 7.628,-3.199 7.531,-3.222 7.432,-3.103 7.265,-2.941 7.177,-3.245 7.078,-3.333 6.914,-3.56 6.763,-3.805 6.599,-4.025 c -0.098,0.055 -0.288,0.168 -0.134,0.28 0.185,0.279 0.396,0.568 0.587,0.827 -0.008,0.16 -0.346,0.199 -0.189,0.369 0.011,0.014 0.026,0.027 0.041,0.033 M 8.054,-3.36 C 8.27,-3.498 7.878,-3.688 7.811,-3.846 7.604,-4.051 7.437,-4.313 7.232,-4.511 7.096,-4.489 6.996,-4.32 7.129,-4.218 c 0.274,0.31 0.538,0.643 0.83,0.942 L 8.054,-3.36 z m -15.201,0.078 c 0.094,-0.019 0.222,-0.089 0.256,-0.168 -0.063,-0.102 -0.191,-0.233 -0.303,-0.098 -0.173,0.106 -0.3,-0.242 -0.111,-0.303 0.248,-0.083 0.539,0.109 0.782,-0.022 0.269,-0.156 0.228,-0.569 -0.03,-0.718 -0.159,-0.166 -0.441,-0.133 -0.577,0.059 0.079,0.048 0.182,0.294 0.274,0.125 0.161,-0.215 0.446,0.187 0.21,0.275 -0.254,0.067 -0.542,-0.053 -0.779,0.007 -0.171,0.114 -0.302,0.342 -0.162,0.53 0.096,0.158 0.249,0.29 0.44,0.313 M 8.464,-3.874 C 8.717,-3.89 8.96,-4.142 8.969,-4.392 8.865,-4.722 8.564,-4.97 8.299,-5.167 c -0.26,-0.184 -0.572,0.066 -0.676,0.306 -0.077,0.371 0.281,0.62 0.516,0.849 0.093,0.078 0.201,0.139 0.325,0.138 M -8.069,-4.021 c 0.249,-0.399 0.361,-0.907 0.77,-1.193 0.08,-0.056 -0.086,-0.185 -0.158,-0.201 -0.205,0.115 -0.344,0.362 -0.593,0.375 -0.234,0.099 -0.476,0.179 -0.717,0.263 0.093,0.135 0.248,0.257 0.407,0.14 0.116,-0.021 0.268,-0.158 0.376,-0.116 -0.044,0.204 -0.173,0.383 -0.257,0.574 0.055,0.055 0.103,0.126 0.172,0.158 M 9.465,-4.773 C 9.566,-4.85 9.645,-4.98 9.677,-5.104 9.525,-5.401 9.292,-5.684 9.171,-5.988 c 0.29,0.138 0.52,0.394 0.787,0.576 0.108,-0.121 0.215,-0.263 -0.009,-0.332 -0.33,-0.235 -0.655,-0.524 -0.997,-0.718 -0.106,0.13 -0.292,0.287 -0.108,0.439 0.14,0.259 0.344,0.489 0.457,0.757 C 9.202,-5.229 9.087,-5.401 8.99,-5.442 8.821,-5.571 8.654,-5.703 8.486,-5.833 c -0.048,0.082 -0.251,0.205 -0.071,0.272 0.343,0.263 0.704,0.538 1.05,0.788 m -18.37,-0.374 c 0.107,0.016 0.327,-0.06 0.206,-0.191 -0.039,-0.127 -0.159,-0.096 -0.247,-0.047 -0.17,-0.027 -0.219,-0.308 -0.024,-0.334 0.3,-0.027 0.616,0.298 0.896,0.071 0.324,-0.23 0.052,-0.721 -0.253,-0.812 -0.113,-0.024 -0.304,0.05 -0.319,0.146 0.066,0.104 0.167,0.232 0.291,0.129 0.17,-0.034 0.313,0.205 0.128,0.301 -0.209,0.144 -0.444,-0.12 -0.665,-0.121 -0.279,-0.038 -0.557,0.279 -0.385,0.54 0.07,0.144 0.202,0.302 0.372,0.318"
                 style="fill:#717f9c;fill-opacity:1;fill-rule:nonzero;stroke:none"
                 id="path4032" />
            </g>
            <g
               id="g4034"
               transform="translate(77.0542,752.7324)">
              <path
                 inkscape:connector-curvature="0"
                 d="m 0,0 c -0.273,-0.113 -0.487,-0.367 -0.643,-0.614 -0.104,-0.159 0.112,-0.357 0.258,-0.228 0.222,0.178 0.474,0.374 0.593,0.637 C 0.242,-0.08 0.12,0.023 0,0"
                 style="fill:#717f9c;fill-opacity:1;fill-rule:nonzero;stroke:none"
                 id="path4036" />
            </g>
            <g
               id="g4038"
               transform="translate(74.6128,754.4971)">
              <path
                 inkscape:connector-curvature="0"
                 d="m 0,0 c -0.141,-0.122 -0.313,-0.258 -0.385,-0.429 0.053,-0.066 0.17,-0.188 0.258,-0.149 0.039,0.188 0.149,0.382 0.146,0.575 C 0.014,0.001 0.006,0.002 0,0"
                 style="fill:#717f9c;fill-opacity:1;fill-rule:nonzero;stroke:none"
                 id="path4040" />
            </g>
            <g
               id="g4042"
               transform="translate(68.8706,756.125)">
              <path
                 inkscape:connector-curvature="0"
                 d="m 0,0 c -0.141,-0.045 -0.054,-0.262 -0.069,-0.374 0.052,-0.141 0.346,-0.069 0.32,0.095 C 0.277,-0.098 0.226,0.032 0,0"
                 style="fill:#717f9c;fill-opacity:1;fill-rule:nonzero;stroke:none"
                 id="path4044" />
            </g>
            <g
               id="g4046"
               transform="translate(69.0718,734.8032)">
              <path
                 inkscape:connector-curvature="0"
                 d="m 0,0 c -0.263,0.001 -0.534,-0.14 -0.578,-0.42 -0.068,-0.244 -0.067,-0.538 0.16,-0.7 0.071,-0.071 -0.131,-0.109 -0.145,-0.192 -0.19,-0.229 -0.131,-0.57 -0.087,-0.841 0.147,-0.291 0.54,-0.363 0.838,-0.321 0.389,0.014 0.568,0.436 0.534,0.778 -0.012,0.19 -0.096,0.384 -0.265,0.485 0.176,0.136 0.366,0.268 0.29,0.521 0.052,0.284 -0.097,0.607 -0.4,0.658 C 0.233,-0.006 0.116,0.007 0,0 m 0.059,-0.393 c 0.214,0.025 0.147,-0.262 0.144,-0.389 0.048,-0.167 -0.236,-0.265 -0.265,-0.092 -0.006,0.148 -0.052,0.371 0.074,0.474 0.015,0.004 0.031,0.006 0.047,0.007 M 0.04,-1.383 c 0.192,-0.032 0.137,-0.304 0.135,-0.445 0.037,-0.162 -0.169,-0.361 -0.297,-0.208 -0.073,0.199 -0.112,0.592 0.162,0.653"
                 style="fill:#f25424;fill-opacity:1;fill-rule:nonzero;stroke:none"
                 id="path4048" />
            </g>
            <g
               id="g4050"
               transform="translate(67.5913,734.9961)">
              <path
                 inkscape:connector-curvature="0"
                 d="m 0,0 c -0.281,-0.022 -0.489,-0.235 -0.541,-0.505 -0.172,-0.524 -0.184,-1.098 -0.123,-1.641 0.15,-0.358 0.634,-0.407 0.963,-0.303 0.405,0.322 0.397,0.905 0.477,1.373 0.039,0.343 0.082,0.844 -0.322,0.984 C 0.308,-0.042 0.157,0.01 0,0 m 0.104,-0.424 c 0.197,0.042 0.209,-0.183 0.182,-0.316 -0.052,-0.432 -0.09,-0.89 -0.209,-1.299 -0.103,-0.141 -0.348,-0.02 -0.295,0.156 0.034,0.47 0.066,0.966 0.236,1.404 0.016,0.029 0.049,0.054 0.086,0.055"
                 style="fill:#f25424;fill-opacity:1;fill-rule:nonzero;stroke:none"
                 id="path4052" />
            </g>
            <g
               id="g4054"
               transform="translate(66.1772,735.2793)">
              <path
                 inkscape:connector-curvature="0"
                 d="m 0,0 c -0.392,-0.011 -0.492,-0.485 -0.6,-0.782 -0.143,-0.43 -0.282,-0.902 -0.153,-1.355 0.235,-0.387 0.956,-0.503 1.166,-0.027 0.255,0.491 0.4,1.053 0.416,1.607 C 0.815,-0.146 0.344,0.005 0,0 M 0.162,-0.424 C 0.383,-0.375 0.293,-0.63 0.296,-0.77 0.22,-1.199 0.139,-1.655 -0.083,-2.03 c -0.11,-0.132 -0.294,0.044 -0.234,0.184 0.075,0.46 0.182,0.926 0.367,1.351 0.025,0.04 0.062,0.071 0.112,0.071"
                 style="fill:#f25424;fill-opacity:1;fill-rule:nonzero;stroke:none"
                 id="path4056" />
            </g>
            <g
               id="g4058"
               transform="translate(64.8628,735.731)">
              <path
                 inkscape:connector-curvature="0"
                 d="m 0,0 c -0.242,-0.004 -0.529,-0.218 -0.51,-0.472 0.118,-0.093 0.31,-0.202 0.463,-0.145 0.055,0.118 0.224,0.27 0.342,0.14 0.113,-0.25 -0.196,-0.453 -0.376,-0.569 -0.33,-0.255 -0.78,-0.377 -1.033,-0.719 -0.047,-0.101 -0.174,-0.308 0.008,-0.345 0.399,-0.144 0.78,-0.364 1.191,-0.457 0.124,0.076 0.243,0.331 0.044,0.398 -0.224,0.089 -0.448,0.175 -0.668,0.271 0.473,0.283 1.111,0.483 1.33,1.042 C 0.919,-0.57 0.76,-0.245 0.483,-0.127 0.337,-0.044 0.17,0.01 0,0"
                 style="fill:#f25424;fill-opacity:1;fill-rule:nonzero;stroke:none"
                 id="path4060" />
            </g>
            <g
               id="g4062"
               transform="translate(63.2075,736.5933)">
              <path
                 inkscape:connector-curvature="0"
                 d="m 0,0 c -0.209,-0.054 -0.517,0.039 -0.599,-0.223 -0.271,-0.25 0.06,-0.233 0.263,-0.243 0.08,-0.077 -0.185,-0.328 -0.247,-0.475 -0.21,-0.333 -0.457,-0.649 -0.631,-0.998 0.101,-0.114 0.274,-0.216 0.429,-0.261 0.438,0.557 0.799,1.194 1.193,1.791 0.058,0.084 0.157,0.213 0.012,0.267 C 0.296,-0.061 0.157,0.026 0,0"
                 style="fill:#f25424;fill-opacity:1;fill-rule:nonzero;stroke:none"
                 id="path4064" />
            </g>
            <g
               id="g4066"
               transform="translate(61.9731,737.5869)">
              <path
                 inkscape:connector-curvature="0"
                 d="m 0,0 c -0.407,-0.09 -0.655,-0.484 -0.946,-0.756 -0.249,-0.288 -0.611,-0.692 -0.393,-1.094 0.171,-0.324 0.614,-0.562 0.944,-0.314 0.441,0.323 0.823,0.746 1.089,1.221 C 0.903,-0.579 0.542,-0.19 0.229,-0.041 0.157,-0.01 0.079,0.006 0,0 m 0.127,-0.471 c 0.192,0.005 0.184,-0.248 0.062,-0.339 -0.283,-0.375 -0.589,-0.771 -0.991,-1.014 -0.129,-0.004 -0.214,0.175 -0.109,0.268 0.288,0.399 0.634,0.792 1.03,1.084 0.003,-0.002 0.005,0.002 0.008,0.001"
                 style="fill:#f25424;fill-opacity:1;fill-rule:nonzero;stroke:none"
                 id="path4068" />
            </g>
            <g
               id="g4070"
               transform="translate(61.0464,738.6079)">
              <path
                 inkscape:connector-curvature="0"
                 d="m 0,0 c -0.49,-0.102 -0.837,-0.516 -1.211,-0.82 -0.24,-0.223 -0.5,-0.606 -0.265,-0.923 0.151,-0.277 0.486,-0.511 0.802,-0.353 0.503,0.219 0.925,0.606 1.27,1.025 0.28,0.36 -0.027,0.844 -0.367,1.03 C 0.157,-0.006 0.079,0.007 0,0 M 0.116,-0.47 C 0.282,-0.493 0.3,-0.732 0.157,-0.814 -0.168,-1.127 -0.507,-1.45 -0.897,-1.673 c -0.141,-0.078 -0.32,0.091 -0.188,0.221 0.324,0.362 0.709,0.689 1.107,0.951 0.032,0.018 0.06,0.027 0.094,0.031"
                 style="fill:#f25424;fill-opacity:1;fill-rule:nonzero;stroke:none"
                 id="path4072" />
            </g>
            <g
               id="g4074"
               transform="translate(60.1997,739.7363)">
              <path
                 inkscape:connector-curvature="0"
                 d="m 0,0 c -0.371,-0.065 -0.841,-0.3 -0.873,-0.725 -0.01,-0.239 0.153,-0.447 0.359,-0.55 -0.19,-0.097 -0.42,-0.349 -0.649,-0.229 -0.152,0.144 0.167,0.296 0.003,0.446 -0.069,0.08 -0.147,0.37 -0.286,0.222 -0.188,-0.152 -0.307,-0.417 -0.165,-0.643 0.093,-0.197 0.193,-0.414 0.423,-0.478 0.469,-0.142 0.891,0.217 1.271,0.436 0.303,0.186 0.674,0.443 0.613,0.852 C 0.673,-0.333 0.354,0.024 0,0 m 0.127,-0.487 c 0.144,0.016 0.264,-0.165 0.128,-0.265 -0.155,-0.168 -0.436,-0.352 -0.66,-0.219 -0.073,0.219 0.217,0.364 0.381,0.446 0.049,0.021 0.097,0.035 0.151,0.038"
                 style="fill:#f25424;fill-opacity:1;fill-rule:nonzero;stroke:none"
                 id="path4076" />
            </g>
            <g
               id="g4078"
               transform="translate(59.1411,742.0332)">
              <path
                 inkscape:connector-curvature="0"
                 d="m 0,0 c -0.521,-0.076 -1.038,-0.265 -1.479,-0.554 -0.344,-0.243 -0.332,-0.754 -0.126,-1.08 0.156,-0.318 0.541,-0.518 0.887,-0.377 0.449,0.114 0.912,0.253 1.284,0.539 0.426,0.359 0.218,1.049 -0.155,1.366 C 0.296,-0.018 0.145,0.009 0,0 m 0.106,-0.561 c 0.282,0.032 0.348,-0.426 0.083,-0.502 -0.418,-0.195 -0.854,-0.436 -1.328,-0.42 -0.231,0.084 -0.182,0.451 0.048,0.514 0.372,0.185 0.779,0.358 1.197,0.408"
                 style="fill:#f25424;fill-opacity:1;fill-rule:nonzero;stroke:none"
                 id="path4080" />
            </g>
            <g
               id="g4082"
               transform="translate(58.6821,743.8091)">
              <path
                 inkscape:connector-curvature="0"
                 d="m 0,0 c -0.429,-0.029 -0.687,-0.442 -0.776,-0.822 -0.065,-0.201 -0.193,-0.475 -0.445,-0.447 -0.192,0.07 -0.262,0.42 -0.015,0.463 0.119,0.016 0.267,0.088 0.185,0.229 -0.041,0.126 -0.009,0.414 -0.224,0.347 -0.347,-0.033 -0.627,-0.358 -0.565,-0.71 0.032,-0.363 0.224,-0.856 0.649,-0.861 0.277,-0.014 0.593,0.043 0.716,0.326 0.2,0.267 0.198,0.662 0.453,0.883 C 0.16,-0.483 0.412,-0.68 0.3,-0.873 0.252,-1 0.094,-0.956 0.034,-1.051 0.025,-1.207 0.022,-1.418 0.135,-1.535 0.506,-1.585 0.819,-1.192 0.738,-0.832 0.718,-0.414 0.485,0.05 0,0"
                 style="fill:#f25424;fill-opacity:1;fill-rule:nonzero;stroke:none"
                 id="path4084" />
            </g>
            <g
               id="g4086"
               transform="translate(58.9995,744.6597)">
              <path
                 inkscape:connector-curvature="0"
                 d="m 0,0 c -0.767,-0.053 -1.545,-0.107 -2.302,-0.199 -0.011,-0.179 -0.01,-0.381 0.058,-0.545 0.801,0.07 1.607,0.124 2.402,0.22 0.064,0.148 0.078,0.386 -0.03,0.512 C 0.089,0.005 0.042,0.001 0,0"
                 style="fill:#f25424;fill-opacity:1;fill-rule:nonzero;stroke:none"
                 id="path4088" />
            </g>
            <g
               id="g4090"
               transform="translate(63.8237,735.5337)">
              <path
                 inkscape:connector-curvature="0"
                 d="m 0,0 c -0.103,-0.098 -0.198,-0.268 -0.184,-0.411 0.112,-0.051 0.258,-0.207 0.381,-0.13 0.041,0.118 0.194,0.247 0.166,0.372 C 0.257,-0.093 0.13,-0.019 0,0"
                 style="fill:#f25424;fill-opacity:1;fill-rule:nonzero;stroke:none"
                 id="path4092" />
            </g>
            <g
               id="g4094"
               transform="translate(63.2241,734.4282)">
              <path
                 inkscape:connector-curvature="0"
                 d="M 0,0 C -0.053,-0.124 -0.228,-0.274 -0.155,-0.417 -0.061,-0.529 0.171,-0.67 0.247,-0.459 0.308,-0.363 0.448,-0.17 0.263,-0.118 0.18,-0.077 0.094,-0.01 0,0"
                 style="fill:#f25424;fill-opacity:1;fill-rule:nonzero;stroke:none"
                 id="path4096" />
            </g>
            <g
               id="g4098"
               transform="translate(79.5708,736.6719)">
              <path
                 inkscape:connector-curvature="0"
                 d="m 0,0 c -0.539,0.072 -1.135,-0.289 -1.194,-0.854 -0.068,-0.416 0.023,-0.876 0.369,-1.145 0.387,-0.404 1.002,-0.536 1.324,-1.004 0.166,-0.306 -0.089,-0.775 -0.462,-0.684 -0.336,0.049 -0.454,0.427 -0.409,0.725 -0.287,0.022 -0.618,0.025 -0.903,-10e-4 -0.002,-0.447 0.055,-0.999 0.511,-1.212 0.397,-0.131 0.833,-0.052 1.245,-0.073 0.518,-0.039 0.998,0.462 0.951,0.976 0.008,0.298 0.031,0.626 -0.198,0.857 -0.216,0.335 -0.606,0.51 -0.932,0.699 -0.262,0.153 -0.581,0.355 -0.625,0.686 0.002,0.293 0.313,0.516 0.585,0.409 C 0.499,-0.719 0.553,-0.989 0.553,-1.21 0.844,-1.204 1.15,-1.24 1.432,-1.214 1.501,-0.721 1.249,-0.156 0.743,-0.019 0.498,0.015 0.247,-0.003 0,0"
                 style="fill:#717f9c;fill-opacity:1;fill-rule:nonzero;stroke:none"
                 id="path4100" />
            </g>
            <g
               id="g4102"
               transform="translate(76.5747,736.6733)">
              <path
                 inkscape:connector-curvature="0"
                 d="m 0,0 c -0.212,-0.008 -0.447,0.021 -0.617,-0.115 -0.523,-0.208 -0.666,-0.824 -0.701,-1.331 -0.05,-0.737 -0.078,-1.511 0.172,-2.215 0.146,-0.374 0.534,-0.634 0.941,-0.583 0.537,0.006 1.089,-0.048 1.618,0.044 0.247,0.04 0.059,0.396 0.114,0.572 -0.014,0.524 0.01,1.065 -0.026,1.581 -0.46,-0.01 -0.936,0.019 -1.386,-0.015 0.04,-0.188 -0.052,-0.496 0.07,-0.614 0.14,-0.024 0.456,0.081 0.447,-0.159 -0.015,-0.256 0.073,-0.562 -0.07,-0.787 -0.225,-0.123 -0.554,-0.111 -0.76,0.045 -0.269,0.313 -0.168,0.778 -0.204,1.16 0.022,0.477 -0.052,0.972 0.057,1.437 0.067,0.266 0.335,0.438 0.604,0.348 C 0.562,-0.693 0.606,-1.053 0.652,-1.298 0.919,-1.39 1.228,-1.299 1.508,-1.319 1.555,-0.815 1.291,-0.238 0.783,-0.067 0.538,0.025 0.26,-0.006 0,0"
                 style="fill:#717f9c;fill-opacity:1;fill-rule:nonzero;stroke:none"
                 id="path4104" />
            </g>
            <g
               id="g4106"
               transform="translate(73.7339,736.6709)">
              <path
                 inkscape:connector-curvature="0"
                 d="m 0,0 c -0.473,0.046 -1.028,-0.115 -1.244,-0.568 -0.196,-0.526 -0.116,-1.222 0.383,-1.55 0.407,-0.352 1.018,-0.479 1.268,-0.985 0.14,-0.323 -0.218,-0.682 -0.55,-0.578 -0.331,0.053 -0.39,0.441 -0.369,0.72 -0.278,0.015 -0.595,10e-4 -0.874,-0.03 -0.072,-0.49 0.108,-1.083 0.616,-1.256 0.45,-0.045 0.914,-0.024 1.366,0.007 0.648,0.157 0.865,0.963 0.667,1.536 -0.177,0.557 -0.784,0.785 -1.241,1.064 -0.271,0.148 -0.561,0.436 -0.428,0.77 0.123,0.345 0.683,0.322 0.76,-0.037 0.064,-0.113 -0.031,-0.365 0.181,-0.334 0.245,-0.003 0.504,-0.02 0.74,0.008 0.046,0.439 -0.113,0.956 -0.55,1.134 C 0.504,0.029 0.244,-0.003 0,0"
                 style="fill:#717f9c;fill-opacity:1;fill-rule:nonzero;stroke:none"
                 id="path4108" />
            </g>
            <g
               id="g4110"
               transform="translate(69.8794,732.3496)">
              <path
                 inkscape:connector-curvature="0"
                 d="M 0,0 12.255,0"
                 style="fill:#f25424;fill-opacity:1;fill-rule:nonzero;stroke:#f25424;stroke-width:0.25;stroke-linecap:butt;stroke-linejoin:miter;stroke-miterlimit:4;stroke-opacity:1;stroke-dasharray:none"
                 id="path4112" />
            </g>
            <g
               id="g4114"
               transform="translate(81.0942,731.3735)">
              <path
                 inkscape:connector-curvature="0"
                 d="M 0,0 -0.043,6.16"
                 style="fill:#f25424;fill-opacity:1;fill-rule:nonzero;stroke:#f25424;stroke-width:0.25;stroke-linecap:butt;stroke-linejoin:miter;stroke-miterlimit:4;stroke-opacity:1;stroke-dasharray:none"
                 id="path4116" />
            </g>
          </g>
        </g>
        <text
           id="text4136"
           x="-119.73292"
           y="339.81088"
           style="font-size:15px">
          <tspan
             style="font-size:7.5px;font-style:oblique;font-variant:normal;font-weight:bold;font-stretch:normal;writing-mode:lr-tb;fill:#231f20;fill-opacity:1;fill-rule:nonzero;stroke:none;font-family:AvantGarde Bk BT;-inkscape-font-specification:AvantGardeITCbyBT-DemiOblique"
             x="-119.73292 -117.85792 -113.83042 -107.96542 -105.78292 -101.42542 -97.067917 -92.710419 -88.352921 -86.057922 -81.700417 -77.342918 -72.98542 -68.627922 -66.445419 -62.050419 -57.505417 -54.640419 -52.17292 -50.417919 -48.025417 -46.27042 -41.725422"
             y="339.81088"
             sodipodi:role="line"
             id="tspan4138">ISO 9001:2008 certified</tspan>
        </text>
      </g>
    </g>
  </g>
</svg>
